<?xml version="1.0" encoding="iso-8859-1"?>
<!-- Generator: Adobe Illustrator 19.0.0, SVG Export Plug-In . SVG Version: 6.00 Build 0)  -->
<svg version="1.1" id="Capa_1" xmlns="http://www.w3.org/2000/svg" xmlns:xlink="http://www.w3.org/1999/xlink" x="0px" y="0px"
	 viewBox="0 0 480 480" style="enable-background:new 0 0 480 480;" xml:space="preserve">
<g>
	<g>
		<path d="M264,328c4.424,0,8-3.576,8-8v-32c0-3.504-2.272-6.592-5.616-7.632l-128-40c-1.544-0.488-3.216-0.488-4.768,0l-128,40
			C2.272,281.408,0,284.496,0,288v32c0,4.424,3.576,8,8,8h8v104H8c-4.424,0-8,3.576-8,8v32c0,4.424,3.576,8,8,8h256
			c4.424,0,8-3.576,8-8v-32c0-4.424-3.576-8-8-8h-8V328H264z M256,464H16v-16h8h32h32h32h32h32h32h32h8V464z M32,432V328h16v104H32z
			 M64,432V328h16v104H64z M96,432V328h16v104H96z M128,432V328h16v104H128z M160,432V328h16v104H160z M192,432V328h16v104H192z
			 M224,432V328h16v104H224z M248,312h-32h-32h-32h-32H88H56H24h-8v-18.12l120-37.504l120,37.504V312H248z"/>
	</g>
</g>
<g>
	<g>
		<rect x="128" y="280" width="16" height="16"/>
	</g>
</g>
<g>
	<g>
		<path d="M456,0H264c-13.232,0-24,10.768-24,24v112c0,13.232,10.768,24,24,24h51.056l-8,16H296c-13.232,0-24,10.768-24,24
			s10.768,24,24,24h128c13.232,0,24-10.768,24-24s-10.768-24-24-24h-11.056l-8-16H456c13.232,0,24-10.768,24-24V24
			C480,10.768,469.232,0,456,0z M408,192h16c4.416,0,8,3.584,8,8s-3.584,8-8,8H296c-4.416,0-8-3.584-8-8s3.584-8,8-8h16H408z
			 M324.944,176l8-16h54.112l8,16H324.944z M464,136c0,4.416-3.584,8-8,8h-64h-64h-64c-4.416,0-8-3.584-8-8v-8h208V136z M464,112
			H256V24c0-4.416,3.584-8,8-8h192c4.416,0,8,3.584,8,8V112z"/>
	</g>
</g>
<g>
	<g>
		<path d="M418.344,26.344L368,76.688l-26.344-26.344c-3.128-3.128-8.184-3.128-11.312,0l-32,32l11.312,11.312L336,67.312
			l26.344,26.344C363.904,95.216,365.952,96,368,96c2.048,0,4.096-0.784,5.656-2.344l56-56L418.344,26.344z"/>
	</g>
</g>
<g>
	<g>
		<rect x="80" y="208" width="16" height="16"/>
	</g>
</g>
<g>
	<g>
		<rect x="80" y="176" width="16" height="16"/>
	</g>
</g>
<g>
	<g>
		<rect x="80" y="144" width="16" height="16"/>
	</g>
</g>
<g>
	<g>
		<rect x="80" y="112" width="16" height="16"/>
	</g>
</g>
<g>
	<g>
		<rect x="80" y="80" width="16" height="16"/>
	</g>
</g>
<g>
	<g>
		<rect x="80" y="48" width="16" height="16"/>
	</g>
</g>
<g>
	<g>
		<rect x="144" y="48" width="16" height="16"/>
	</g>
</g>
<g>
	<g>
		<rect x="112" y="48" width="16" height="16"/>
	</g>
</g>
<g>
	<g>
		<rect x="176" y="48" width="16" height="16"/>
	</g>
</g>
<g>
	<g>
		<rect x="208" y="48" width="16" height="16"/>
	</g>
</g>
<g>
	<g>
		<rect x="416" y="272" width="16" height="16"/>
	</g>
</g>
<g>
	<g>
		<rect x="416" y="240" width="16" height="16"/>
	</g>
</g>
<g>
	<g>
		<rect x="416" y="304" width="16" height="16"/>
	</g>
</g>
<g>
	<g>
		<rect x="416" y="336" width="16" height="16"/>
	</g>
</g>
<g>
	<g>
		<rect x="416" y="368" width="16" height="16"/>
	</g>
</g>
<g>
	<g>
		<rect x="416" y="400" width="16" height="16"/>
	</g>
</g>
<g>
	<g>
		<rect x="416" y="432" width="16" height="16"/>
	</g>
</g>
<g>
	<g>
		<rect x="384" y="432" width="16" height="16"/>
	</g>
</g>
<g>
	<g>
		<rect x="352" y="432" width="16" height="16"/>
	</g>
</g>
<g>
	<g>
		<rect x="320" y="432" width="16" height="16"/>
	</g>
</g>
<g>
	<g>
		<rect x="288" y="432" width="16" height="16"/>
	</g>
</g>
<g>
</g>
<g>
</g>
<g>
</g>
<g>
</g>
<g>
</g>
<g>
</g>
<g>
</g>
<g>
</g>
<g>
</g>
<g>
</g>
<g>
</g>
<g>
</g>
<g>
</g>
<g>
</g>
<g>
</g>
</svg>
