<svg id="Capa_1" enable-background="new 0 0 60 60" height="23" viewBox="0 0 60 60" width="23"
    xmlns="http://www.w3.org/2000/svg">
    <g>
        <path
            d="m286.039 302c74.439 0 135-61.009 135-136s-60.561-136-135-136c-31.894 0-61.233 11.207-84.36 29.907-22.422-19.35-50.719-29.907-80.64-29.907v30c21.951 0 42.747 7.503 59.464 21.294-18.429 23.255-29.464 52.705-29.464 84.706 0 74.991 60.561 136 135 136zm0-242c57.897 0 105 47.551 105 106s-47.103 106-105 106-105-47.551-105-106 47.103-106 105-106z" />
        <path
            d="m354.039 376.047v-44.047h-68.418c-29.293 0-45.385-7.058-62.422-14.53-17.34-7.605-35.27-15.47-64.66-15.47-34.578 0-55.51 10.654-84.481 25.399-2.904 1.478-5.92 3.013-9.072 4.601h-64.947v120h15c52.188 0 82.423 14.797 114.434 30.463 29.671 14.521 60.353 29.537 106.5 29.537 59.916 0 118.103-21.278 163.881-59.925l112.106-87.799-56.75-68.101zm26.658 52.94c-40.402 34.186-91.799 53.013-144.724 53.013-39.2 0-64.276-12.272-93.313-26.483-29.296-14.337-62.155-30.42-112.622-33.122v-60.395h42.042c3.536-1.779 3.77-1.852 15.585-7.864 28.044-14.274 43.492-22.136 70.874-22.136 23.101 0 36.775 5.998 52.61 12.943 18.229 7.995 38.889 17.057 74.472 17.057h38.418v30h-128v30h148.208l106.621-84.175 18.25 21.899c-1.215.952 12.054-9.442-88.421 69.263z" />
        <path
            d="m286.039 211c-8.271 0-15-6.729-15-15h-30c0 19.555 12.541 36.228 30 42.42v18.58h30v-18.58c17.459-6.192 30-22.865 30-42.42 0-34.619-25.977-40.858-41.497-44.585-16.601-3.987-18.503-5.571-18.503-15.415 0-8.271 6.729-15 15-15s15 6.729 15 15h30c0-19.555-12.541-36.228-30-42.42v-18.58h-30v18.58c-17.459 6.192-30 22.865-30 42.42 0 34.619 25.977 40.858 41.497 44.585 16.601 3.987 18.503 5.571 18.503 15.415 0 8.271-6.729 15-15 15z" />
        <path d="m91.039 60h30v30h-30z" />
        <path d="m91.039 0h30v30h-30z" />
        <path d="m61.039 30h30v30h-30z" />
    </g>
</svg>